<svg width="172" height="168" viewBox="0 0 172 168" fill="none" xmlns="http://www.w3.org/2000/svg">
<path d="M141.623 47.0775L124.319 28.443L144.507 9.69729L135.044 0.23468L102.909 11.7398V49.5979L2.71433 145.306C0.724909 147.206 -3.59006 151.329 5.95466 161.321C15.5005 171.313 19.8144 167.191 21.8038 165.29L122.266 69.3279H162.881L172 37.1922L162.499 27.6908L141.623 47.0775Z" fill="#CCA2A2"/>
<path d="M103.892 91.3965L84.3452 110.944L141.311 164.811C142.949 166.361 146.502 169.722 156.089 159.769C165.674 149.819 162.12 146.458 160.481 144.908L103.892 91.3965Z" fill="#CCA2A2"/>
<path d="M73.9055 69.6366L25.6454 21.376L19.7083 10.1008L7.05956 6.5314L1.35791 12.2331L4.92726 24.8818L16.2025 30.8189L64.4631 79.079L73.9055 69.6366Z" fill="#CCA2A2"/>
</svg>
