<svg width="241" height="230" viewBox="0 0 241 230" fill="none" xmlns="http://www.w3.org/2000/svg">
<g clip-path="url(#clip0)">
<path d="M218.406 172.5V46.2875C218.387 44.8971 218.078 43.5242 217.498 42.2486C216.918 40.973 216.078 39.8203 215.027 38.8572C213.975 37.8942 212.734 37.1402 211.375 36.639C210.016 36.1377 208.566 35.8993 207.11 35.9375H33.8908C32.4343 35.8993 30.9843 36.1377 29.6252 36.639C28.266 37.1402 27.0249 37.8942 25.9737 38.8572C24.9226 39.8203 24.0825 40.973 23.5023 42.2486C22.9221 43.5242 22.6133 44.8971 22.5939 46.2875V172.5H0.000162713V175.663C-0.0205779 180.474 1.94223 185.101 5.46486 188.543C8.98749 191.986 13.7874 193.968 18.8283 194.063H222.172C227.213 193.968 232.013 191.986 235.535 188.543C239.058 185.101 241.021 180.474 241 175.663V172.5H218.406ZM30.1252 46.2875C30.1437 45.8403 30.2573 45.4013 30.4589 44.9971C30.6605 44.593 30.9461 44.2322 31.2982 43.9365C31.6502 43.6408 32.0616 43.4164 32.5072 43.2769C32.9529 43.1374 33.4236 43.0857 33.8908 43.125H207.11C207.577 43.0857 208.047 43.1374 208.493 43.2769C208.939 43.4164 209.35 43.6408 209.702 43.9365C210.054 44.2322 210.34 44.593 210.541 44.9971C210.743 45.4013 210.857 45.8403 210.875 46.2875V172.5H30.1252V46.2875ZM18.8283 186.875C16.5302 186.748 14.3159 186.006 12.4382 184.735C10.5605 183.464 9.09508 181.715 8.20923 179.688H105.438V186.875H18.8283ZM222.172 186.875H135.563V179.688H232.791C231.905 181.715 230.44 183.464 228.562 184.735C226.684 186.006 224.47 186.748 222.172 186.875Z" fill="#001AFF"/>
<path d="M37.6562 165.312H203.344V50.3125H37.6562V165.312ZM45.1875 57.5H195.812V158.125H45.1875V57.5Z" fill="#001AFF"/>
</g>
<defs>
<clipPath id="clip0">
<rect width="241" height="230" fill="white"/>
</clipPath>
</defs>
</svg>
