<svg width="235" height="221" viewBox="0 0 235 221" fill="none" xmlns="http://www.w3.org/2000/svg">
<path d="M231.328 23.7917L210.343 3.19647C208.176 1.06706 205.327 0 202.483 0C199.639 0 196.794 1.06234 194.628 3.19174L177.841 19.6415L214.542 55.6478L231.328 39.2027C235.666 34.9439 235.666 28.0364 231.328 23.7917Z" fill="#CDAFDF"/>
<path d="M68.8745 126.532L105.58 162.543L206.687 63.3628L169.982 27.3518L68.8745 126.532Z" fill="#CDAFDF"/>
<path d="M60.9526 134.237L53.1167 177.921L97.6577 170.244L60.9526 134.237Z" fill="#CDAFDF"/>
<path d="M162.42 197.388H24.0265V61.3797H121.694L145.764 37.7721H15.5372C6.99031 37.7721 0 44.6419 0 53.0415V205.731C0 214.13 6.99031 221 15.5372 221H170.905C179.452 221 186.442 214.13 186.442 205.731V96.5644L162.42 120.13V197.388Z" fill="#CDAFDF"/>
</svg>
